<svg width="100" height="100" viewBox="0 0 100 100" fill="none" xmlns="http://www.w3.org/2000/svg">
<circle cx="50" cy="50" r="49.5" fill="white" stroke="#007E5B"/>
<path fill-rule="evenodd" clip-rule="evenodd" d="M62.6667 43.6666H57.9167V37.3333H35.75C34.0083 37.3333 32.5833 38.7583 32.5833 40.5V57.9166H35.75C35.75 60.545 37.8717 62.6666 40.5 62.6666C43.1283 62.6666 45.25 60.545 45.25 57.9166H54.75C54.75 60.545 56.8717 62.6666 59.5 62.6666C62.1283 62.6666 64.25 60.545 64.25 57.9166H67.4167V50L62.6667 43.6666ZM61.875 46.0416L64.9783 50H57.9167V46.0416H61.875ZM38.9167 57.9166C38.9167 58.7875 39.6292 59.5 40.5 59.5C41.3708 59.5 42.0833 58.7875 42.0833 57.9166C42.0833 57.0458 41.3708 56.3333 40.5 56.3333C39.6292 56.3333 38.9167 57.0458 38.9167 57.9166ZM44.015 54.75C43.1442 53.7841 41.9092 53.1666 40.5 53.1666C39.0908 53.1666 37.8558 53.7841 36.985 54.75H35.75V40.5H54.75V54.75H44.015ZM57.9167 57.9166C57.9167 58.7875 58.6292 59.5 59.5 59.5C60.3708 59.5 61.0833 58.7875 61.0833 57.9166C61.0833 57.0458 60.3708 56.3333 59.5 56.3333C58.6292 56.3333 57.9167 57.0458 57.9167 57.9166Z" fill="#007E5B"/>
</svg>
