<svg width="100" height="100" viewBox="0 0 100 100" fill="none" xmlns="http://www.w3.org/2000/svg">
<circle cx="50" cy="50" r="49.5" fill="white" stroke="#007E5B"/>
<path fill-rule="evenodd" clip-rule="evenodd" d="M37.3334 35.75H62.6667C64.4242 35.75 65.8334 37.1592 65.8334 38.9167V43.6667C65.8334 45.4242 64.4242 46.8333 62.6667 46.8333H59.5V51.5833C59.5 55.0825 56.6659 57.9167 53.1667 57.9167H43.6667C40.1675 57.9167 37.3334 55.0825 37.3334 51.5833V35.75ZM56.3334 51.5833V38.9167H40.5V51.5833C40.5 53.325 41.925 54.75 43.6667 54.75H53.1667C54.9084 54.75 56.3334 53.325 56.3334 51.5833ZM59.5 43.6667V38.9167H62.6667V43.6667H59.5ZM34.1667 61.0833H62.6667V64.25H34.1667V61.0833Z" fill="#007E5B"/>
</svg>
