<svg width="100" height="100" viewBox="0 0 100 100" fill="none" xmlns="http://www.w3.org/2000/svg">
<circle cx="50" cy="50" r="49.5" fill="white" stroke="#007E5B"/>
<path fill-rule="evenodd" clip-rule="evenodd" d="M50.095 34.1667C53.4517 37.5233 55.2408 41.83 55.5258 46.2475C53.4992 47.34 51.6308 48.7333 50 50.4117C48.3692 48.7175 46.5008 47.3242 44.4742 46.2475C44.8383 41.8617 46.7067 37.555 50.095 34.1667ZM52.1375 44.5692C51.7733 42.6692 51.0767 40.8483 50.0792 39.2175C49.0342 40.8642 48.3058 42.685 47.91 44.585C48.6383 45.06 49.3508 45.5825 50.0158 46.1208C50.6967 45.5667 51.3933 45.0442 52.1375 44.5692ZM50 55.4625C48.7017 53.4833 47.055 51.7575 45.155 50.3958C45.0686 50.336 44.9795 50.2818 44.8899 50.2273L44.8899 50.2273C44.7659 50.1519 44.6411 50.0761 44.5217 49.9842C44.6381 50.0648 44.7597 50.1404 44.8777 50.2137L44.8778 50.2138L44.8778 50.2138C44.9683 50.2701 45.0567 50.325 45.1392 50.38C42.0517 48.1475 38.2675 46.8333 34.1667 46.8333C34.1667 55.2567 39.4867 62.3817 46.8808 65.0258C47.8783 65.39 48.9233 65.6592 50 65.8333C51.0767 65.6433 52.1058 65.3742 53.1192 65.0258C60.5133 62.3817 65.8333 55.2567 65.8333 46.8333C59.215 46.8333 53.4042 50.2692 50 55.4625ZM49.9842 62.6192C50.6967 62.4608 51.3933 62.2708 52.09 62.0333C57.2675 60.1808 61.0675 55.7317 62.255 50.3958C60.45 50.8233 58.7242 51.5833 57.1725 52.6125L57.1883 52.6442L57.1883 52.6442C57.0458 52.7392 56.9033 52.8342 56.7608 52.9133L56.65 52.9925C55.0983 54.1167 53.7367 55.5417 52.6442 57.2042L50 61.2417L47.3558 57.1883C46.295 55.5417 44.9492 54.1325 43.3817 52.9925L43.2708 52.9292C43.065 52.8183 42.8592 52.6758 42.6533 52.5333L42.685 52.5175C41.1492 51.5358 39.4867 50.8233 37.745 50.4117C38.9325 55.7317 42.7483 60.1808 47.9575 62.0492C48.6067 62.2867 49.2875 62.4767 49.9842 62.6192Z" fill="#007E5B"/>
</svg>
