<svg width="100" height="100" viewBox="0 0 100 100" fill="none" xmlns="http://www.w3.org/2000/svg">
<circle cx="50" cy="50" r="49.5" fill="white" stroke="#007E5B"/>
<path fill-rule="evenodd" clip-rule="evenodd" d="M50 34.1667C41.2442 34.1667 34.1667 41.2442 34.1667 50C34.1667 58.7558 41.2442 65.8333 50 65.8333C58.7559 65.8333 65.8334 58.7558 65.8334 50C65.8334 41.2442 58.7559 34.1667 50 34.1667ZM54.1009 43.6667L50 47.7675L45.8992 43.6667L43.6667 45.8992L47.7675 50L43.6667 54.1008L45.8992 56.3333L50 52.2325L54.1009 56.3333L56.3334 54.1008L52.2325 50L56.3334 45.8992L54.1009 43.6667ZM37.3334 50C37.3334 56.9825 43.0175 62.6667 50 62.6667C56.9825 62.6667 62.6667 56.9825 62.6667 50C62.6667 43.0175 56.9825 37.3333 50 37.3333C43.0175 37.3333 37.3334 43.0175 37.3334 50Z" fill="#007E5B"/>
</svg>
